<?xml version="1.0" encoding="UTF-8"?>
<!DOCTYPE svg PUBLIC "-//W3C//DTD SVG 1.1//EN" "http://www.w3.org/Graphics/SVG/1.1/DTD/svg11.dtd">
<svg xmlns="http://www.w3.org/2000/svg" version="1.1" width="512px" height="512px" style="shape-rendering:geometricPrecision; text-rendering:geometricPrecision; image-rendering:optimizeQuality; fill-rule:evenodd; clip-rule:evenodd" xmlns:xlink="http://www.w3.org/1999/xlink">
<g><path style="opacity:0.997" fill="#298cff" d="M 264.5,44.5 C 263.168,175.069 263.168,305.736 264.5,436.5C 260.818,436.335 257.152,436.501 253.5,437C 245.961,441.248 245.628,445.915 252.5,451C 256.152,451.499 259.818,451.665 263.5,451.5C 263.5,460.833 263.5,470.167 263.5,479.5C 257.167,479.5 250.833,479.5 244.5,479.5C 243.502,335.903 243.168,192.237 243.5,48.5C 247.257,42.6495 251.257,36.9829 255.5,31.5C 258.883,35.5526 261.883,39.8859 264.5,44.5 Z"/></g>
<g><path style="opacity:0.998" fill="#2e86ff" d="M 264.5,44.5 C 271.21,52.5439 277.543,60.8773 283.5,69.5C 283.831,191.237 283.498,312.904 282.5,434.5C 276.51,435.24 270.51,435.906 264.5,436.5C 263.168,305.736 263.168,175.069 264.5,44.5 Z"/></g>
<g><path style="opacity:0.998" fill="#2690ff" d="M 243.5,48.5 C 243.168,192.237 243.502,335.903 244.5,479.5C 241.287,479.81 238.287,479.477 235.5,478.5C 235.833,338.666 235.5,198.999 234.5,59.5C 237.271,55.61 240.271,51.9433 243.5,48.5 Z"/></g>
<g><path style="opacity:0.997" fill="#2493ff" d="M 234.5,59.5 C 235.5,198.999 235.833,338.666 235.5,478.5C 231.143,478.414 226.81,478.08 222.5,477.5C 223.832,343.069 223.832,208.736 222.5,74.5C 226.5,69.5 230.5,64.5 234.5,59.5 Z"/></g>
<g><path style="opacity:0.998" fill="#3480ff" d="M 283.5,69.5 C 291.824,78.7924 300.157,88.1258 308.5,97.5C 307.501,207.332 307.167,317.332 307.5,427.5C 299.336,430.444 291.002,432.777 282.5,434.5C 283.498,312.904 283.831,191.237 283.5,69.5 Z"/></g>
<g><path style="opacity:0.998" fill="#2197ff" d="M 222.5,74.5 C 223.832,208.736 223.832,343.069 222.5,477.5C 218.521,476.503 214.521,475.503 210.5,474.5C 210.5,345.833 210.5,217.167 210.5,88.5C 214.155,83.5137 218.155,78.847 222.5,74.5 Z"/></g>
<g><path style="opacity:0.998" fill="#1e9aff" d="M 210.5,88.5 C 210.5,217.167 210.5,345.833 210.5,474.5C 207.254,473.946 204.254,472.946 201.5,471.5C 200.168,347.196 200.168,222.863 201.5,98.5C 204.529,95.141 207.529,91.8076 210.5,88.5 Z"/></g>
<g><path style="opacity:0.998" fill="#1a9fff" d="M 201.5,98.5 C 200.168,222.863 200.168,347.196 201.5,471.5C 194.112,469.631 187.112,466.964 180.5,463.5C 180.5,349.5 180.5,235.5 180.5,121.5C 187.159,113.508 194.159,105.841 201.5,98.5 Z"/></g>
<g><path style="opacity:0.997" fill="#3979ff" d="M 308.5,97.5 C 315.175,104.175 321.508,111.175 327.5,118.5C 327.167,218.001 327.501,317.335 328.5,416.5C 321.976,420.93 314.976,424.597 307.5,427.5C 307.167,317.332 307.501,207.332 308.5,97.5 Z"/></g>
<g><path style="opacity:0.997" fill="#3d74ff" d="M 327.5,118.5 C 331.566,121.563 334.899,125.229 337.5,129.5C 337.167,223.001 337.501,316.335 338.5,409.5C 335.725,412.605 332.392,414.938 328.5,416.5C 327.501,317.335 327.167,218.001 327.5,118.5 Z"/></g>
<g><path style="opacity:0.997" fill="#15a5ff" d="M 180.5,121.5 C 180.5,235.5 180.5,349.5 180.5,463.5C 172.766,461.068 165.766,457.401 159.5,452.5C 160.499,349.335 160.833,246.001 160.5,142.5C 167.194,135.474 173.861,128.474 180.5,121.5 Z"/></g>
<g><path style="opacity:0.997" fill="#3f72ff" d="M 337.5,129.5 C 341.167,132.5 344.5,135.833 347.5,139.5C 347.5,227.167 347.5,314.833 347.5,402.5C 345.051,405.556 342.051,407.889 338.5,409.5C 337.501,316.335 337.167,223.001 337.5,129.5 Z"/></g>
<g><path style="opacity:0.996" fill="#436dff" d="M 347.5,139.5 C 355.099,146.067 361.766,153.401 367.5,161.5C 367.5,234.833 367.5,308.167 367.5,381.5C 362.21,389.79 355.544,396.79 347.5,402.5C 347.5,314.833 347.5,227.167 347.5,139.5 Z"/></g>
<g><path style="opacity:0.997" fill="#11abff" d="M 160.5,142.5 C 160.833,246.001 160.499,349.335 159.5,452.5C 152.262,448.262 145.596,443.262 139.5,437.5C 140.832,346.931 140.832,256.264 139.5,165.5C 145.809,157.224 152.809,149.557 160.5,142.5 Z"/></g>
<g><path style="opacity:0.995" fill="#4867ff" d="M 367.5,161.5 C 376.278,170.279 383.945,179.945 390.5,190.5C 391.827,249.294 391.827,307.961 390.5,366.5C 387.487,362.66 383.821,361.827 379.5,364C 375.637,370.012 371.637,375.845 367.5,381.5C 367.5,308.167 367.5,234.833 367.5,161.5 Z"/></g>
<g><path style="opacity:0.997" fill="#0dafff" d="M 139.5,165.5 C 140.832,256.264 140.832,346.931 139.5,437.5C 136.833,435.5 134.5,433.167 132.5,430.5C 132.5,345.167 132.5,259.833 132.5,174.5C 134.482,171.19 136.815,168.19 139.5,165.5 Z"/></g>
<g><path style="opacity:0.995" fill="#0ab3ff" d="M 132.5,174.5 C 132.5,259.833 132.5,345.167 132.5,430.5C 126.081,425.418 120.748,419.418 116.5,412.5C 116.833,340.665 116.499,268.998 115.5,197.5C 120.447,189.261 126.113,181.594 132.5,174.5 Z"/></g>
<g><path style="opacity:0.993" fill="#4e60ff" d="M 390.5,190.5 C 399.338,201.496 406.671,213.496 412.5,226.5C 411.501,278.997 411.168,331.664 411.5,384.5C 406.847,396.474 400.18,407.141 391.5,416.5C 391.5,401.833 391.5,387.167 391.5,372.5C 391.483,370.435 391.15,368.435 390.5,366.5C 391.827,307.961 391.827,249.294 390.5,190.5 Z"/></g>
<g><path style="opacity:0.992" fill="#06b8ff" d="M 115.5,197.5 C 116.499,268.998 116.833,340.665 116.5,412.5C 108.067,401.982 101.4,390.315 96.5,377.5C 96.8322,328.997 96.4988,280.664 95.5,232.5C 100.575,219.798 107.242,208.132 115.5,197.5 Z"/></g>
<g><path style="opacity:0.962" fill="#02bdff" d="M 95.5,232.5 C 96.4988,280.664 96.8322,328.997 96.5,377.5C 81.675,342.889 77.5083,306.889 84,269.5C 86.3364,256.66 90.1697,244.327 95.5,232.5 Z"/></g>
<g><path style="opacity:0.967" fill="#525aff" d="M 412.5,226.5 C 429.722,263.948 434.222,302.948 426,343.5C 422.822,357.875 417.988,371.542 411.5,384.5C 411.168,331.664 411.501,278.997 412.5,226.5 Z"/></g>
<g><path style="opacity:0.968" fill="#4866ff" d="M 391.5,372.5 C 391.5,387.167 391.5,401.833 391.5,416.5C 384.833,425.167 377.167,432.833 368.5,439.5C 367.833,428.5 367.167,417.5 366.5,406.5C 376.31,396.195 384.644,384.862 391.5,372.5 Z"/></g>
<g><path style="opacity:0.975" fill="#436dff" d="M 366.5,406.5 C 367.167,417.5 367.833,428.5 368.5,439.5C 362.541,445.149 355.875,449.815 348.5,453.5C 347.506,443.347 347.172,433.014 347.5,422.5C 354.019,417.404 360.352,412.071 366.5,406.5 Z"/></g>
<g><path style="opacity:0.974" fill="#3e73ff" d="M 347.5,422.5 C 347.172,433.014 347.506,443.347 348.5,453.5C 341.981,457.928 334.981,461.594 327.5,464.5C 328.139,454.773 327.472,445.44 325.5,436.5C 333.078,432.262 340.412,427.596 347.5,422.5 Z"/></g>
<g><path style="opacity:0.98" fill="#3979ff" d="M 325.5,436.5 C 327.472,445.44 328.139,454.773 327.5,464.5C 321.128,467.624 314.461,469.958 307.5,471.5C 307.195,462.083 307.528,452.75 308.5,443.5C 313.985,440.931 319.651,438.597 325.5,436.5 Z"/></g>
<g><path style="opacity:0.972" fill="#3480ff" d="M 308.5,443.5 C 307.528,452.75 307.195,462.083 307.5,471.5C 300.135,474.259 292.468,476.259 284.5,477.5C 284.197,468.185 283.197,459.185 281.5,450.5C 290.489,448.563 299.489,446.229 308.5,443.5 Z"/></g>
<g><path style="opacity:0.973" fill="#2f86ff" d="M 281.5,450.5 C 283.197,459.185 284.197,468.185 284.5,477.5C 277.559,478.729 270.559,479.396 263.5,479.5C 263.5,470.167 263.5,460.833 263.5,451.5C 269.516,451.407 275.516,451.074 281.5,450.5 Z"/></g>
</svg>
